<svg width="84" height="25" xmlns="http://www.w3.org/2000/svg" xmlns:xlink="http://www.w3.org/1999/xlink" xml:space="preserve" overflow="hidden"><defs><clipPath id="clip0"><rect x="0" y="0" width="84" height="25"/></clipPath><linearGradient x1="73.3124" y1="-13.0817" x2="10.6875" y2="38.0818" gradientUnits="userSpaceOnUse" spreadMethod="reflect" id="fill1"><stop offset="0" stop-color="#CEFF00"/><stop offset="0.2826" stop-color="#CFE557"/><stop offset="0.5405" stop-color="#D0D09F"/><stop offset="0.753" stop-color="#D1C0D3"/><stop offset="0.9122" stop-color="#D2B7F3"/><stop offset="1" stop-color="#D2B3FF"/></linearGradient></defs><g clip-path="url(#clip0)"><path d="M2.35972 25.0001 81.6405 25.0001C82.9559 25.0001 83.9999 23.9403 83.9999 22.6518L83.9999 2.34832C83.9999 1.03907 82.935 0 81.6405 0L2.35972 0C1.0443 0 0.000306895 1.05987 0.000306895 2.34832L0.000306895 22.6518C-0.0205839 23.9403 1.0443 25.0001 2.35972 25.0001Z" fill="url(#fill1)" fill-rule="evenodd"/><path d="M13.066 13.9999C13.066 14.9179 12.8171 15.6405 12.3001 16.2265 11.783 16.7929 11.1702 17.0858 10.3851 17.0858 9.69569 17.0858 9.14036 16.8515 8.66164 16.3827 8.20205 15.914 7.95309 15.289 7.95309 14.4491L7.95309 8.99993 5.99984 8.99993 5.99984 14.8984C5.99984 16.1288 6.40197 17.1444 7.22541 17.8866 8.02969 18.6288 9.00633 18.9999 10.117 18.9999 10.8638 18.9999 11.5532 18.8241 12.1277 18.453 12.4724 18.2382 12.7788 17.9843 13.0469 17.6913L13.0469 18.8437 15.0001 18.8437 15.0001 8.99993 13.0469 8.99993 13.0469 13.9999Z" fill-rule="evenodd"/><path d="M22.8934 8.99993C22.145 8.99993 21.4733 9.17572 20.8784 9.52729 20.533 9.74212 20.226 9.99603 19.9573 10.289L19.9573 9.15618 17.9999 9.15618 17.9999 18.9999 19.9573 18.9999 19.9573 13.9804C19.9573 13.0624 20.2068 12.3398 20.7249 11.7538 21.243 11.1679 21.8571 10.8945 22.6247 10.8945 23.3156 10.8945 23.8913 11.1288 24.3519 11.5781 24.8125 12.0273 25.0427 12.6718 25.0427 13.5507L25.0427 18.9999 27.0002 18.9999 27.0002 13.082C27.0002 11.871 26.5972 10.8554 25.772 10.0937 24.9852 9.37104 24.0065 8.99993 22.8934 8.99993Z" fill-rule="evenodd"/><path d="M38.5961 13.1266 38.5961 13.1266C37.5192 12.9155 36.7885 12.7043 36.4231 12.5508 36.25 12.474 36.1346 12.378 36.0577 12.2821 35.9808 12.1861 35.9615 12.0709 35.9423 11.9174 35.9423 11.7446 35.9808 11.6103 36.0769 11.4951 36.1539 11.3608 36.2885 11.2456 36.5 11.1304 36.9039 10.9001 37.3654 10.7849 37.9038 10.7849 38.9615 10.7849 40.0961 11.1688 41.3269 11.9558L41.6922 12.1861 41.6922 10.1516 41.5769 10.0748C40.3461 9.36461 39.1154 8.99993 37.8846 8.99993 36.8846 8.99993 35.9808 9.24944 35.2116 9.76769 34.827 10.0172 34.5193 10.3435 34.3077 10.7082 34.0962 11.0729 34 11.4759 34 11.9366 34 12.7043 34.327 13.3377 34.9616 13.76 35.5769 14.1823 36.4808 14.5085 37.6923 14.7773L37.6923 14.7773C38.6346 14.9884 39.3077 15.1995 39.6346 15.4107 39.8077 15.5066 39.923 15.6218 40 15.737 40.0769 15.8521 40.0961 15.9481 40.0961 16.0824L40.0961 16.0824 40.0961 16.0824 40.0961 16.1016C40.0961 16.2552 40.0577 16.3704 39.9807 16.5047 39.9038 16.6199 39.7884 16.7542 39.6346 16.8694 39.3077 17.0997 38.8269 17.2341 38.1731 17.2341 37.4231 17.2341 36.7308 17.0805 36.0577 16.7734 35.3846 16.4663 34.827 16.0824 34.4231 15.6602L34 15.2379 34 17.5796 34.1154 17.6563C35.4423 18.5392 36.8077 18.9999 38.1923 18.9999 39.25 18.9999 40.173 18.7504 40.8846 18.2514 41.6153 17.7523 41.9999 16.9846 41.9999 16.0633 41.9999 15.3531 41.7115 14.7197 41.173 14.2207 40.673 13.7408 39.7884 13.3761 38.5961 13.1266Z" fill-rule="evenodd"/><path d="M53.9031 13.2964C53.9031 13.2964 53.9031 13.2964 53.9031 13.2964 53.9031 13.2964 53.9031 13.2964 53.9031 13.2964L53.9031 13.2964C53.7287 12.0826 53.1667 11.0422 52.2559 10.233L52.2559 10.233C51.3257 9.40455 50.2405 8.99993 49.0002 8.99993 47.6244 8.99993 46.4229 9.48161 45.4539 10.4449 44.485 11.4083 43.9812 12.6028 44.0005 13.99 44.0005 15.358 44.485 16.5525 45.4539 17.5351 46.4229 18.5177 47.6244 19.0186 49.0002 18.9994 49.9498 18.9994 50.8412 18.7489 51.6745 18.2865 52.5078 17.8048 53.1279 17.169 53.5349 16.3598L53.6705 16.0901 51.8683 15.6662 51.7714 15.8011C51.4614 16.225 51.0738 16.5525 50.5893 16.803 50.1048 17.0534 49.5816 17.169 49.0196 17.169 48.2057 17.169 47.5275 16.9186 46.9461 16.4369 46.4423 15.9938 46.1516 15.4543 46.0353 14.78L53.9031 14.78 53.9418 14.5873C53.9806 14.4139 54 14.2212 54 14.0286 53.9612 13.7974 53.9418 13.5469 53.9031 13.2964L53.9031 13.2964ZM46.0159 13.123C46.1516 12.5065 46.4423 11.9863 46.9461 11.5431 47.5081 11.0422 48.1864 10.7917 48.9809 10.7917 49.7754 10.7917 50.4149 11.0422 50.9769 11.5431 51.4614 11.9863 51.752 12.5065 51.9071 13.123L46.0159 13.123Z" fill-rule="evenodd"/><path d="M61.4158 8.99993C60.5843 8.99993 59.838 9.17572 59.177 9.52729 58.7932 9.74212 58.4521 9.99603 58.1536 10.289L58.1536 9.15618 56 9.15618 56 18.9999 58.1749 18.9999 58.1749 13.9804C58.1749 13.0624 58.4521 12.3398 59.0277 11.7538 59.6034 11.1679 60.2858 10.8945 61.1386 10.8945 61.9062 10.8945 62.5459 11.1288 63.0576 11.5781 63.5693 12.0273 63.8252 12.6718 63.8252 13.5507L63.8252 18.9999 66 18.9999 66 13.082C66 11.871 65.5523 10.8554 64.6354 10.0937 63.7612 9.37104 62.6525 8.99993 61.4158 8.99993Z" fill-rule="evenodd"/><path d="M75.8423 5.99984 75.8423 6.2536 75.8423 10.2551C75.5039 9.90376 75.1231 9.61098 74.6577 9.37674 73.9596 9.02539 73.1981 8.8497 72.3519 8.8497 70.8712 8.8497 69.5808 9.35721 68.5654 10.3332 67.5289 11.3092 67 12.5389 67 13.9248 67 15.2912 67.5289 16.5014 68.5654 17.4969 69.6019 18.4924 70.8923 18.9999 72.3519 18.9999 73.177 18.9999 73.9596 18.8242 74.6577 18.4534 75.1019 18.2191 75.5039 17.9263 75.8423 17.5945L75.8423 18.8437 78 18.8437 78 5.99984 75.8423 5.99984ZM74.9327 16.1696C74.2558 16.8137 73.452 17.126 72.5 17.126 71.527 17.126 70.7443 16.8137 70.0885 16.1891 69.4327 15.5449 69.0943 14.8227 69.0943 13.9248 69.0943 13.0074 69.4116 12.2656 70.0885 11.641 70.7654 11.0164 71.5481 10.7041 72.5 10.7041 73.4731 10.7041 74.2558 11.0164 74.9327 11.641 75.6097 12.2852 75.927 13.0074 75.927 13.9053 75.9481 14.7837 75.6097 15.5254 74.9327 16.1696Z" fill-rule="evenodd"/><path d="M34.0001 6.99987 31.4752 6.99987 31.4752 8.62901C31.4752 8.82769 31.2772 8.98663 31.0296 8.98663L29.8663 8.98663C29.3959 8.98663 28.9999 9.30451 28.9999 9.68201L28.9999 18.9999 31.5247 18.9999 31.5247 9.38399C31.5247 9.18531 31.7227 9.02637 31.9703 9.02637L33.1089 9.02637C33.604 9.02637 34.0001 8.70849 34.0001 8.31113L34.0001 6.99987Z" fill-rule="evenodd"/></g></svg>
