<svg width="164" height="49" xmlns="http://www.w3.org/2000/svg" xmlns:xlink="http://www.w3.org/1999/xlink" xml:space="preserve" overflow="hidden"><defs><clipPath id="clip0"><rect x="0" y="0" width="164" height="49"/></clipPath><linearGradient x1="143.324" y1="-25.4061" x2="20.6757" y2="74.4063" gradientUnits="userSpaceOnUse" spreadMethod="reflect" id="fill1"><stop offset="0" stop-color="#CEFF00"/><stop offset="0.2826" stop-color="#CFE557"/><stop offset="0.5405" stop-color="#D0D09F"/><stop offset="0.753" stop-color="#D1C0D3"/><stop offset="0.9122" stop-color="#D2B7F3"/><stop offset="1" stop-color="#D2B3FF"/></linearGradient></defs><g clip-path="url(#clip0)"><path d="M4.60707 49.0002 159.393 49.0002C161.962 49.0002 164 46.9229 164 44.3975L164 4.6027C164 2.03658 161.921 0 159.393 0L4.60707 0C2.03887 0 0.000599177 2.07734 0.000599177 4.6027L0.000599177 44.3975C-0.0401877 46.9229 2.03887 49.0002 4.60707 49.0002Z" fill="url(#fill1)" fill-rule="evenodd"/><path d="M25.917 27.5C25.917 29.4278 25.3914 30.9454 24.3 32.1759 23.2084 33.3653 21.9148 33.9806 20.2574 33.9806 18.8021 33.9806 17.6298 33.4884 16.6191 32.504 15.6489 31.5196 15.1234 30.2071 15.1234 28.4434L15.1234 16.9998 11 16.9998 11 29.3867C11 31.9708 11.8489 34.1036 13.5872 35.6623 15.2851 37.2209 17.3468 38.0002 19.6915 38.0002 21.268 38.0002 22.7233 37.631 23.9361 36.8517 24.6638 36.4006 25.3106 35.8673 25.8765 35.2521L25.8765 37.672 29.9999 37.672 29.9999 16.9998 25.8765 16.9998 25.8765 27.5Z" fill-rule="evenodd"/><path d="M44.3305 16.9998C42.7505 16.9998 41.3326 17.369 40.0768 18.1073 39.3476 18.5585 38.6994 19.0917 38.1322 19.7069L38.1322 17.328 34 17.328 34 38.0002 38.1322 38.0002 38.1322 27.459C38.1322 25.5312 38.6589 24.0136 39.7527 22.7832 40.8465 21.5527 42.1428 20.9784 43.7633 20.9784 45.2217 20.9784 46.4371 21.4706 47.4093 22.414 48.3817 23.3574 48.8678 24.7109 48.8678 26.5566L48.8678 38.0002 52.9999 38.0002 52.9999 25.5723C52.9999 23.0292 52.1492 20.8964 50.4072 19.2967 48.7462 17.7792 46.6802 16.9998 44.3305 16.9998Z" fill-rule="evenodd"/><path d="M75.7667 25.666 75.7667 25.666C73.4783 25.2226 71.9254 24.7792 71.149 24.4568 70.7812 24.2955 70.536 24.094 70.3726 23.8924 70.2091 23.6909 70.1682 23.4491 70.1274 23.1266 70.1274 22.7638 70.2091 22.4817 70.4134 22.2398 70.5769 21.9577 70.8629 21.7158 71.3124 21.474 72.1706 20.9903 73.1514 20.7484 74.2956 20.7484 76.5432 20.7484 78.9542 21.5546 81.5696 23.2072L82.346 23.6909 82.346 19.4183 82.1008 19.2571C79.4854 17.7657 76.8701 16.9998 74.2547 16.9998 72.1297 16.9998 70.2091 17.5238 68.5745 18.6121 67.7572 19.1361 67.1034 19.8214 66.6538 20.5872 66.2043 21.3531 66 22.1995 66 23.1669 66 24.7792 66.6947 26.1094 68.0433 26.9962 69.3509 27.8829 71.2716 28.5681 73.8461 29.1325L73.8461 29.1325C75.8485 29.5759 77.2787 30.0192 77.9735 30.4626 78.3412 30.6642 78.5864 30.906 78.7499 31.1478 78.9133 31.3897 78.9542 31.5912 78.9542 31.8734L78.9542 31.8734 78.9542 31.8734 78.9542 31.9137C78.9542 32.2362 78.8725 32.478 78.709 32.7602 78.5456 33.002 78.3004 33.2842 77.9735 33.526 77.2787 34.0097 76.2571 34.2918 74.8677 34.2918 73.274 34.2918 71.8028 33.9694 70.3726 33.3245 68.9423 32.6795 67.7572 31.8734 66.899 30.9866L66 30.0999 66 35.0174 66.2452 35.1786C69.0649 37.0328 71.9663 38.0002 74.9086 38.0002 77.1562 38.0002 79.1177 37.4762 80.6297 36.4282 82.1825 35.3802 82.9998 33.7679 82.9998 31.8331 82.9998 30.3417 82.3869 29.0116 81.2427 27.9636 80.1802 26.9558 78.3004 26.19 75.7667 25.666Z" fill-rule="evenodd"/><path d="M105.796 26.0226C105.796 26.0226 105.796 26.0226 105.796 26.0226 105.796 26.0226 105.796 26.0226 105.796 26.0226L105.796 26.0226C105.43 23.4736 104.25 21.2887 102.337 19.5893L102.337 19.5893C100.384 17.8495 98.1049 16.9998 95.5004 16.9998 92.6111 16.9998 90.088 18.0114 88.0532 20.0344 86.0184 22.0575 84.9603 24.566 85.001 27.4792 85.001 30.3519 86.0184 32.8605 88.0532 34.924 90.088 36.9875 92.6111 38.0395 95.5004 37.9991 97.4945 37.9991 99.3665 37.473 101.116 36.502 102.866 35.4905 104.169 34.1553 105.023 32.4559L105.308 31.8894 101.523 30.9993 101.32 31.2826C100.669 32.1727 99.8549 32.8605 98.8375 33.3865 97.8201 33.9125 96.7213 34.1553 95.5412 34.1553 93.8319 34.1553 92.4076 33.6293 91.1867 32.6177 90.1287 31.6872 89.5182 30.5543 89.2741 29.1381L105.796 29.1381 105.878 28.7335C105.959 28.3694 106 27.9648 106 27.5602 105.918 27.0746 105.878 26.5486 105.796 26.0226L105.796 26.0226ZM89.2333 25.6585C89.5182 24.3637 90.1287 23.2713 91.1867 22.3407 92.3669 21.2887 93.7913 20.7627 95.4598 20.7627 97.1283 20.7627 98.4712 21.2887 99.6514 22.3407 100.669 23.2713 101.279 24.3637 101.605 25.6585L89.2333 25.6585Z" fill-rule="evenodd"/><path d="M119.29 16.9998C117.71 16.9998 116.292 17.369 115.036 18.1073 114.307 18.5585 113.659 19.0917 113.092 19.7069L113.092 17.328 109 17.328 109 38.0002 113.132 38.0002 113.132 27.459C113.132 25.5312 113.659 24.0136 114.753 22.7832 115.846 21.5527 117.143 20.9784 118.763 20.9784 120.222 20.9784 121.437 21.4706 122.409 22.414 123.382 23.3574 123.868 24.7109 123.868 26.5566L123.868 38.0002 128 38.0002 128 25.5723C128 23.0292 127.149 20.8964 125.407 19.2967 123.746 17.7792 121.64 16.9998 119.29 16.9998Z" fill-rule="evenodd"/><path d="M148.685 11 148.685 11.5271 148.685 19.8379C148.008 19.1082 147.246 18.5001 146.315 18.0136 144.919 17.2838 143.396 16.919 141.704 16.919 138.742 16.919 136.162 17.973 134.131 20.0001 132.058 22.0271 131 24.5812 131 27.4596 131 30.2974 132.058 32.8109 134.131 34.8785 136.204 36.9461 138.785 38.0002 141.704 38.0002 143.354 38.0002 144.919 37.6353 146.315 36.865 147.204 36.3785 148.008 35.7704 148.685 35.0812L148.685 37.6758 153 37.6758 153 11 148.685 11ZM146.865 32.1218C145.511 33.4596 143.904 34.1082 142 34.1082 140.054 34.1082 138.488 33.4596 137.177 32.1623 135.865 30.8245 135.188 29.3244 135.188 27.4596 135.188 25.5542 135.823 24.0136 137.177 22.7163 138.531 21.419 140.096 20.7704 142 20.7704 143.946 20.7704 145.511 21.419 146.865 22.7163 148.219 24.0541 148.854 25.5542 148.854 27.419 148.896 29.2434 148.219 30.7839 146.865 32.1218Z" fill-rule="evenodd"/><path d="M66 13.0001 61.4555 13.0001 61.4555 16.3941C61.4555 16.808 61.0991 17.1392 60.6535 17.1392L58.5595 17.1392C57.7129 17.1392 57.0001 17.8014 57.0001 18.5879L57.0001 38.0002 61.5446 38.0002 61.5446 17.967C61.5446 17.5531 61.901 17.2219 62.3466 17.2219L64.3961 17.2219C65.2872 17.2219 66 16.5597 66 15.7319L66 13.0001Z" fill-rule="evenodd"/></g></svg>